<svg id="Group_4160" data-name="Group 4160" xmlns="http://www.w3.org/2000/svg" width="6.514mm" height="5.508mm" viewBox="0 0 18.464 15.614"><defs><style>.cls-1{fill:#1a96c8;}</style></defs><g id="Group_4159" data-name="Group 4159"><path id="Path_29254" data-name="Path 29254" class="cls-1" d="M18.042,8.445c.012-.016.024-.03.034-.046l.028-.047c.009-.016.018-.027.025-.042s.016-.033.024-.05a.3.3,0,0,0,.02-.045l.018-.049.018-.049c0-.017.008-.034.012-.05s.009-.034.013-.052.006-.039.009-.059a.187.187,0,0,1,.006-.044,1.063,1.063,0,0,0,0-.211.114.114,0,0,0-.006-.044.319.319,0,0,1-.009-.059c0-.02-.009-.035-.013-.052s-.008-.033-.012-.05a.5.5,0,0,0-.018-.05c-.007-.016-.012-.033-.018-.049a.443.443,0,0,0-.02-.045l-.024-.05A.291.291,0,0,0,18.1,7.26c-.009-.013-.019-.031-.028-.046a.53.53,0,0,0-.034-.045.439.439,0,0,0-.028-.039c-.022-.027-.046-.052-.07-.078L11.378.488A1.068,1.068,0,0,0,9.868,2h0l4.74,4.74H1.278a1.068,1.068,0,1,0,0,2.136H14.611l-4.74,4.74a1.068,1.068,0,0,0,1.507,1.513h0l6.563-6.563c.024-.024.048-.051.07-.078A.3.3,0,0,0,18.042,8.445Z"/></g></svg>