<svg xmlns="http://www.w3.org/2000/svg" xmlns:xlink="http://www.w3.org/1999/xlink" width="704" height="384" viewBox="0 0 704 384">
  <defs>
    <linearGradient id="linear-gradient" x1="-0.454" y1="-0.069" x2="1.666" y2="1" gradientUnits="objectBoundingBox">
      <stop offset="0" stop-color="#f26a27"/>
      <stop offset="1" stop-color="#fccb00"/>
    </linearGradient>
    <linearGradient id="linear-gradient-2" x1="-0.517" y1="-0.156" x2="0.773" y2="0.811" xlink:href="#linear-gradient"/>
    <linearGradient id="linear-gradient-3" x1="0" y1="0.5" x2="1" y2="0.5" xlink:href="#linear-gradient"/>
    <linearGradient id="linear-gradient-5" y1="0.5" x2="1" y2="0.5" gradientUnits="objectBoundingBox">
      <stop offset="0" stop-color="#29c4f1"/>
      <stop offset="1" stop-color="#1c54a1"/>
    </linearGradient>
    <linearGradient id="linear-gradient-6" x1="0.002" y1="29.84" x2="1.004" y2="29.84" gradientUnits="objectBoundingBox">
      <stop offset="0" stop-color="#582387"/>
      <stop offset="1" stop-color="#9f1d6f"/>
    </linearGradient>
    <linearGradient id="linear-gradient-7" x1="1" y1="-10.888" x2="0" y2="-10.888" gradientUnits="objectBoundingBox">
      <stop offset="0" stop-color="#0080b2"/>
      <stop offset="1" stop-color="#16b975"/>
    </linearGradient>
    <linearGradient id="linear-gradient-8" y1="0.5" x2="1" y2="0.5" gradientUnits="objectBoundingBox">
      <stop offset="0" stop-color="#2f7fc2"/>
      <stop offset="1" stop-color="#285677"/>
    </linearGradient>
  </defs>
  <g id="Group_4187" data-name="Group 4187" transform="translate(-1145 -3619)">
    <rect id="Rectangle_1038" data-name="Rectangle 1038" width="704" height="384" rx="30" transform="translate(1145 3619)" fill="#fff"/>
    <path id="Path_29256" data-name="Path 29256" d="M-1488.8,111.018a19.841,19.841,0,0,1-13.8-24.432,19.841,19.841,0,0,1,13.8-13.8,3.991,3.991,0,0,0,2.774-4.915,3.99,3.99,0,0,0-4.915-2.773h0a27.809,27.809,0,0,0-19.376,34.224,27.81,27.81,0,0,0,19.376,19.376,4.038,4.038,0,0,0,1.068.145h0a3.988,3.988,0,0,0,3.979-4A3.989,3.989,0,0,0-1488.8,111.018Z" transform="translate(2745.402 3607.368)" fill="url(#linear-gradient)"/>
    <path id="Path_29257" data-name="Path 29257" d="M-1454.268,65.1a3.92,3.92,0,0,0-1.068-.145h0a3.988,3.988,0,0,0-3.984,3.992,3.989,3.989,0,0,0,2.923,3.839,19.841,19.841,0,0,1,13.8,24.432,19.841,19.841,0,0,1-13.8,13.8,3.987,3.987,0,0,0-2.732,4.934,3.987,3.987,0,0,0,4.861,2.752,27.951,27.951,0,0,0,18.626-34.771A28.374,28.374,0,0,0-1454.268,65.1Z" transform="translate(2723.828 3607.366)" fill="url(#linear-gradient-2)"/>
    <path id="Path_29258" data-name="Path 29258" d="M-1579.808,118.8a4.941,4.941,0,0,1-3.988-3.543,6.567,6.567,0,0,1,2.652-6.385l2.127-1.913c.891-.791,1.78-1.648,2.7-2.39l13.187-11.256,1.964-1.65a48.992,48.992,0,0,0,3.841-3.3,10.738,10.738,0,0,0,3.193-7.828,6.935,6.935,0,0,0-2.419-5.13,10.8,10.8,0,0,0-8.062-2.428,16.066,16.066,0,0,0-10.613,5.785,3.981,3.981,0,0,1-5.613.432,3.981,3.981,0,0,1-.519-5.508h0a24.175,24.175,0,0,1,16.021-8.636,18.534,18.534,0,0,1,13.893,4.251,14.831,14.831,0,0,1,5.275,10.878,18.682,18.682,0,0,1-5.422,13.8,56.655,56.655,0,0,1-4.449,3.889l-1.846,1.474-13.506,11.541h21.246a3.978,3.978,0,0,1,3.978,3.978v0a3.929,3.929,0,0,1-3.929,3.929h-.049Z" transform="translate(2775.492 3607.367)" fill="#333"/>
    <circle id="Ellipse_909" data-name="Ellipse 909" cx="4.005" cy="4.005" r="4.005" transform="translate(1296.717 3672.309)" fill="#333"/>
    <path id="Path_29259" data-name="Path 29259" d="M-1400.2,130.56a3.973,3.973,0,0,1-3.973-3.973V97.317a3.98,3.98,0,0,1,3.981-3.981,3.981,3.981,0,0,1,3.981,3.981V126.57a3.974,3.974,0,0,1-3.956,3.99h-.032Z" transform="translate(2700.955 3595.595)" fill="#333"/>
    <path id="Path_29260" data-name="Path 29260" d="M-1370.017,66.219a4.4,4.4,0,0,1-4.285,4.518,4.4,4.4,0,0,1-4.518-4.285c0-.068,0-.138,0-.206a4.347,4.347,0,0,1,4.292-4.4h.116a4.293,4.293,0,0,1,4.4,4.187C-1370.016,66.094-1370.016,66.156-1370.017,66.219Zm-.736,0a3.583,3.583,0,0,0-3.475-3.688c-.061,0-.122,0-.184,0a3.637,3.637,0,0,0-3.684,3.589c0,.042,0,.084,0,.126a3.684,3.684,0,0,0,3.7,3.67,3.684,3.684,0,0,0,3.67-3.7h-.024Zm-2.394.8,1.1,1.68h-1.061l-.97-1.493h-1.11V68.7h-1.073V63.787h2.045c1.294,0,2.068.672,2.068,1.719a1.533,1.533,0,0,1-.984,1.513Zm-1.145-.651c.7,0,1.1-.324,1.1-.872s-.4-.857-1.1-.857h-.923v1.719Z" transform="translate(2690.44 3608.657)" fill="#333"/>
    <circle id="Ellipse_910" data-name="Ellipse 910" cx="16.706" cy="16.706" r="16.706" transform="translate(1187.675 3763.277)" fill="#54b047"/>
    <circle id="Ellipse_911" data-name="Ellipse 911" cx="16.706" cy="16.706" r="16.706" transform="translate(1381.859 3763.277)" fill="#54b047"/>
    <circle id="Ellipse_912" data-name="Ellipse 912" cx="16.706" cy="16.706" r="16.706" transform="translate(1576.043 3763.277)" fill="#54b047"/>
    <circle id="Ellipse_913" data-name="Ellipse 913" cx="16.706" cy="16.706" r="16.706" transform="translate(1770.227 3763.277)" fill="#54b047"/>
    <line id="Line_1" data-name="Line 1" x2="143.595" transform="translate(1229.333 3779.983)" fill="none" stroke="#54b047" stroke-linecap="round" stroke-miterlimit="10" stroke-width="8"/>
    <line id="Line_2" data-name="Line 2" x2="143.595" transform="translate(1423.859 3779.983)" fill="none" stroke="#54b047" stroke-linecap="round" stroke-miterlimit="10" stroke-width="8"/>
    <line id="Line_3" data-name="Line 3" x2="143.595" transform="translate(1618.044 3779.983)" fill="none" stroke="#54b047" stroke-linecap="round" stroke-miterlimit="10" stroke-width="8"/>
    <ellipse id="Ellipse_914" data-name="Ellipse 914" cx="54.208" cy="54.208" rx="54.208" ry="54.208" transform="translate(1695.224 3841.988)" fill="url(#linear-gradient-3)"/>
    <path id="Path_29292" data-name="Path 29292" d="M22.678,11.9,18.929,23.308,15.249,11.9H11.8L8,23.216,4.37,11.9H.506L5.8,28H9.775l3.657-10.9L16.974,28h4l5.267-16.1Zm16.583,9.959a6.126,6.126,0,0,0-6.44-6.417,6.3,6.3,0,0,0-6.6,6.371c0,3.68,2.783,6.371,7.061,6.371a6.481,6.481,0,0,0,5.106-2l-1.909-2.07a4.2,4.2,0,0,1-3.1,1.2,3.3,3.3,0,0,1-3.542-2.484h9.361C39.215,22.526,39.261,22.135,39.261,21.859Zm-6.417-3.7a2.94,2.94,0,0,1,3.036,2.576H29.785A2.929,2.929,0,0,1,32.844,18.156Zm18.745-.9V15.626H48.162V28H51.75V22.158c0-2.369,1.311-3.45,3.289-3.45.276,0,.506.023.805.046V15.442A4.994,4.994,0,0,0,51.589,17.259Zm18.4,4.6a6.126,6.126,0,0,0-6.44-6.417,6.3,6.3,0,0,0-6.6,6.371c0,3.68,2.783,6.371,7.061,6.371a6.481,6.481,0,0,0,5.106-2l-1.909-2.07a4.2,4.2,0,0,1-3.105,1.2,3.3,3.3,0,0,1-3.542-2.484H69.92C69.943,22.526,69.989,22.135,69.989,21.859Zm-6.417-3.7a2.94,2.94,0,0,1,3.036,2.576h-6.1A2.929,2.929,0,0,1,63.572,18.156ZM78.361,28.184c2.6,0,4.646-1.15,5.543-3.128l-2.783-1.518a3.044,3.044,0,0,1-2.783,1.7A3.166,3.166,0,0,1,75.1,21.813a3.166,3.166,0,0,1,3.243-3.427,3.086,3.086,0,0,1,2.783,1.7l2.783-1.5c-.9-2.024-2.944-3.151-5.543-3.151-4.025,0-6.9,2.645-6.9,6.371S74.336,28.184,78.361,28.184Zm13.34,0c3.933,0,6.785-2.645,6.785-6.371s-2.852-6.371-6.785-6.371-6.808,2.645-6.808,6.371S87.768,28.184,91.7,28.184Zm0-2.944a3.14,3.14,0,0,1-3.174-3.427,3.173,3.173,0,1,1,6.325,0A3.123,3.123,0,0,1,91.7,25.24Zm25.024-9.8a5.564,5.564,0,0,0-4.462,2.024,4.619,4.619,0,0,0-4.071-2.024,5.011,5.011,0,0,0-3.887,1.61V15.626h-3.427V28h3.588V21.79c0-2.208,1.127-3.243,2.714-3.243,1.5,0,2.346.92,2.346,2.921V28h3.588V21.79c0-2.208,1.127-3.243,2.737-3.243,1.449,0,2.346.92,2.346,2.921V28h3.588V20.916C121.785,17.144,119.669,15.442,116.725,15.442Zm24.127,0a5.564,5.564,0,0,0-4.462,2.024,4.619,4.619,0,0,0-4.071-2.024,5.011,5.011,0,0,0-3.887,1.61V15.626H125V28h3.588V21.79c0-2.208,1.127-3.243,2.714-3.243,1.5,0,2.346.92,2.346,2.921V28h3.588V21.79c0-2.208,1.127-3.243,2.737-3.243,1.449,0,2.346.92,2.346,2.921V28h3.588V20.916C145.912,17.144,143.8,15.442,140.852,15.442Zm20.539,6.417a6.126,6.126,0,0,0-6.44-6.417,6.3,6.3,0,0,0-6.6,6.371c0,3.68,2.783,6.371,7.061,6.371a6.481,6.481,0,0,0,5.106-2l-1.909-2.07a4.2,4.2,0,0,1-3.105,1.2,3.3,3.3,0,0,1-3.542-2.484h9.361C161.345,22.526,161.391,22.135,161.391,21.859Zm-6.417-3.7a2.94,2.94,0,0,1,3.036,2.576h-6.1A2.929,2.929,0,0,1,154.974,18.156Zm16.33-2.714a5.417,5.417,0,0,0-4.094,1.633V15.626h-3.427V28h3.588V21.882c0-2.277,1.242-3.335,2.967-3.335,1.587,0,2.507.92,2.507,2.921V28h3.588V20.916C176.433,17.144,174.225,15.442,171.3,15.442Zm17.526-4.508v6a4.754,4.754,0,0,0-3.7-1.5,6.015,6.015,0,0,0-6.187,6.371,6.015,6.015,0,0,0,6.187,6.371,4.76,4.76,0,0,0,3.864-1.61V28h3.427V10.934ZM185.748,25.24a3.14,3.14,0,0,1-3.174-3.427,3.173,3.173,0,1,1,6.325,0A3.135,3.135,0,0,1,185.748,25.24Z" transform="translate(1188 3846)" fill="#333"/>
    <path id="Path_29293" data-name="Path 29293" d="M.14-14v2.6h2.8V0H6.18V-14Z" transform="translate(1200.281 3787.329)" fill="#fff"/>
    <path id="Path_29294" data-name="Path 29294" d="M5.22-2.64,8.44-5.68c1.96-1.82,2.34-3.06,2.34-4.42,0-2.54-2.08-4.14-5.2-4.14a6.5,6.5,0,0,0-5.56,2.6l2.36,1.52a3.423,3.423,0,0,1,2.9-1.4c1.48,0,2.24.64,2.24,1.74,0,.68-.22,1.4-1.46,2.58L.66-2.1V0H11.24V-2.64Z" transform="translate(1393.229 3786.744)" fill="#fff"/>
    <path id="Path_29295" data-name="Path 29295" d="M7.32-8.3l3.16-3.6V-14H.68v2.6H6.64L3.76-8.14V-6H5.24c1.84,0,2.62.66,2.62,1.72,0,1.14-1,1.8-2.62,1.8a6.8,6.8,0,0,1-4-1.26L-.02-1.26A9.626,9.626,0,0,0,5.32.24c3.98,0,5.8-2.16,5.8-4.52C11.12-6.34,9.84-7.9,7.32-8.3Z" transform="translate(1587.577 3787.329)" fill="#fff"/>
    <path id="Path_29296" data-name="Path 29296" d="M13.6-5.58H11.32V-8.2H8.26v2.62H4.5L10.62-14H7.22L.62-5.12v2.18H8.16V0h3.16V-2.94H13.6Z" transform="translate(1780.025 3786.329)" fill="#fff"/>
    <path id="Path_29261" data-name="Path 29261" d="M-684.049,413.95l-16.828-16.83-6.131,6.129,23.783,23.783,38.405-42.3-6.964-6.964Z" transform="translate(2425.345 3493.795)" fill="#fff"/>
    <path id="Path_29262" data-name="Path 29262" d="M-1561.035,496.986a11.976,11.976,0,0,0-1.96-.218,11.618,11.618,0,0,0-7.84,3.049,5.4,5.4,0,0,1-.871.762,11.515,11.515,0,0,0-1.742,1.633,2.928,2.928,0,0,0-.221,4.135l0,0a3.062,3.062,0,0,0,4.246.218l.218-.218c.544-.544.98-.871,1.416-1.306.327-.327.653-.545.98-.871a5.448,5.448,0,0,1,3.811-1.525,3.063,3.063,0,0,1,.98.109h.109a7.058,7.058,0,0,1,6.089,7.909,7.058,7.058,0,0,1-5.218,5.919h-.109a5.809,5.809,0,0,1-5.88-1.306l-.109-.109-.871-.871c-.871-.98-1.851-1.96-2.723-2.831-.653-.653-1.2-1.307-1.851-2.069a18.066,18.066,0,0,1-1.415-1.525c-1.2-1.307-2.5-2.722-3.811-4.029a19.35,19.35,0,0,0-2.831-2.4l-.109-.109a8.928,8.928,0,0,0-7.077-.763,10,10,0,0,0-3.811,2.069,9.767,9.767,0,0,0-.654,13.72,1.932,1.932,0,0,1,.436.545,9.266,9.266,0,0,0,13.066,0,3.062,3.062,0,0,0-.218-4.247,3.129,3.129,0,0,0-4.029,0,3.286,3.286,0,0,1-4.647.035h0l-.035-.035c0-.109-.109-.109-.109-.218l-.109-.109a3.649,3.649,0,0,1,.141-5.156l.077-.07a4.256,4.256,0,0,1,1.524-.871l.218-.109a2.118,2.118,0,0,1,1.96.218,23.016,23.016,0,0,1,1.85,1.525v.109c1.2,1.307,2.5,2.613,3.7,3.92a18.783,18.783,0,0,1,1.416,1.633c.653.653,1.2,1.307,1.851,1.96.871.98,1.851,1.96,2.722,2.94a7.341,7.341,0,0,0,1.307,1.307,12.1,12.1,0,0,0,11.542,2.613,13.054,13.054,0,0,0,9.037-16.006A12.176,12.176,0,0,0-1561.035,496.986Z" transform="translate(2780.016 3428.264)" fill="url(#linear-gradient-3)"/>
    <path id="Path_29263" data-name="Path 29263" d="M-1519.164,461.82h-30.814a2.66,2.66,0,0,0-2.4,2.831,2.575,2.575,0,0,0,2.4,2.4h5.335a2.584,2.584,0,0,1,2.5,2.656v.067a2.693,2.693,0,0,1-2.5,2.5h31.794v-4.246A6.3,6.3,0,0,0-1519.164,461.82Zm-9.037,7.622a2.4,2.4,0,0,1-2.4-2.4,2.4,2.4,0,0,1,2.4-2.4,2.4,2.4,0,0,1,2.4,2.4h0A2.417,2.417,0,0,1-1528.2,469.442Zm7.295,0a2.4,2.4,0,0,1-2.4-2.4,2.4,2.4,0,0,1,2.4-2.4,2.4,2.4,0,0,1,2.4,2.4h0A2.418,2.418,0,0,1-1520.906,469.442Z" transform="translate(2762.426 3442.76)" fill="#9f9e9e"/>
    <path id="Path_29264" data-name="Path 29264" d="M-1577.85,479.651a2.614,2.614,0,0,0-2.614,2.614,2.614,2.614,0,0,0,2.614,2.613h22.213a17.866,17.866,0,0,1,2.5.218,17.238,17.238,0,0,1,14.688,19.458,17.238,17.238,0,0,1-6.522,11.248h13.937a6.553,6.553,0,0,0,6.533-6.534V479.651Z" transform="translate(2774.075 3435.364)" fill="#bebebe"/>
    <path id="Path_29265" data-name="Path 29265" d="M-1398.674,477.7a14.09,14.09,0,0,0-14.177,14,14.09,14.09,0,0,0,14,14.177,14.09,14.09,0,0,0,14.177-14v-.088A14.056,14.056,0,0,0-1398.674,477.7Zm1.937,10.831-2.2,6.781a1.129,1.129,0,0,1-.352.528.745.745,0,0,1-.617.176,1.277,1.277,0,0,1-.616-.176,1.851,1.851,0,0,1-.352-.528l-1.585-4.931-1.5,4.931a1.857,1.857,0,0,1-.352.528.743.743,0,0,1-.616.176.95.95,0,0,1-.528-.176c-.176-.176-.352-.352-.352-.528l-2.2-6.781a.322.322,0,0,1-.088-.265.527.527,0,0,1,.264-.528.761.761,0,0,1,.529-.265,1.25,1.25,0,0,1,.528.176.484.484,0,0,1,.264.44l1.673,5.372,1.585-5.284a.945.945,0,0,1,1.223-.537.936.936,0,0,1,.185.1c.088.176.265.264.265.44l1.673,5.284,1.585-5.284a1.915,1.915,0,0,1,.264-.44.943.943,0,0,1,.528-.176.528.528,0,0,1,.529.264.758.758,0,0,1,.264.528c.088,0,0,.088,0,.176Zm7.133,3.17a3.031,3.031,0,0,1-1.056,1.056,3.478,3.478,0,0,1-1.849.352h-1.762v2.113a.528.528,0,0,1-.264.528.761.761,0,0,1-.528.265.793.793,0,0,1-.792-.793v-6.868a.528.528,0,0,1,.264-.528.76.76,0,0,1,.528-.264h2.554a3.313,3.313,0,0,1,1.849.352,3.031,3.031,0,0,1,1.056,1.056A2.984,2.984,0,0,1-1389.6,491.7Z" transform="translate(2704.554 3436.175)" fill="none"/>
    <path id="Path_29266" data-name="Path 29266" d="M-1379.58,497.257h-1.673v2.554h1.673a2.491,2.491,0,0,0,1.409-.352,1.128,1.128,0,0,0,.352-.881,1.348,1.348,0,0,0-.352-.881C-1378.435,497.345-1378.875,497.257-1379.58,497.257Z" transform="translate(2691.448 3428.062)" fill="none"/>
    <path id="Path_29267" data-name="Path 29267" d="M-1379.58,497.257h-1.673v2.554h1.673a2.491,2.491,0,0,0,1.409-.352,1.128,1.128,0,0,0,.352-.881,1.348,1.348,0,0,0-.352-.881C-1378.435,497.345-1378.875,497.257-1379.58,497.257Z" transform="translate(2691.448 3428.062)" fill="none"/>
    <path id="Path_29268" data-name="Path 29268" d="M-1398.674,477.7a14.09,14.09,0,0,0-14.177,14,14.09,14.09,0,0,0,14,14.177,14.09,14.09,0,0,0,14.177-14v-.088A14.056,14.056,0,0,0-1398.674,477.7Zm1.937,10.831-2.2,6.781a1.129,1.129,0,0,1-.352.528.745.745,0,0,1-.617.176,1.277,1.277,0,0,1-.616-.176,1.851,1.851,0,0,1-.352-.528l-1.585-4.931-1.5,4.931a1.857,1.857,0,0,1-.352.528.743.743,0,0,1-.616.176.95.95,0,0,1-.528-.176c-.176-.176-.352-.352-.352-.528l-2.2-6.781a.322.322,0,0,1-.088-.265.527.527,0,0,1,.264-.528.761.761,0,0,1,.529-.265,1.25,1.25,0,0,1,.528.176.484.484,0,0,1,.264.44l1.673,5.372,1.585-5.284a.945.945,0,0,1,1.223-.537.936.936,0,0,1,.185.1c.088.176.265.264.265.44l1.673,5.284,1.585-5.284a1.915,1.915,0,0,1,.264-.44.943.943,0,0,1,.528-.176.528.528,0,0,1,.529.264.758.758,0,0,1,.264.528c.088,0,0,.088,0,.176Zm7.133,3.17a3.031,3.031,0,0,1-1.056,1.056,3.478,3.478,0,0,1-1.849.352h-1.762v2.113a.528.528,0,0,1-.264.528.761.761,0,0,1-.528.265.793.793,0,0,1-.792-.793v-6.868a.528.528,0,0,1,.264-.528.76.76,0,0,1,.528-.264h2.554a3.313,3.313,0,0,1,1.849.352,3.031,3.031,0,0,1,1.056,1.056A2.984,2.984,0,0,1-1389.6,491.7Z" transform="translate(2704.554 3436.175)" fill="none"/>
    <path id="Path_29269" data-name="Path 29269" d="M-1389.167,494.483h-2.553a.528.528,0,0,0-.529.264.8.8,0,0,0-.264.616v6.869a.792.792,0,0,0,.792.792.528.528,0,0,0,.528-.264.759.759,0,0,0,.264-.528v-2.113h1.761a3.323,3.323,0,0,0,1.849-.352,3.037,3.037,0,0,0,1.057-1.057,2.987,2.987,0,0,0,0-2.73,3.038,3.038,0,0,0-1.057-1.057A4.093,4.093,0,0,0-1389.167,494.483Zm1.762,2.818a1.348,1.348,0,0,1-.352.88,1.914,1.914,0,0,1-1.409.441h-1.673v-2.554h1.673a2.493,2.493,0,0,1,1.409.352A1.35,1.35,0,0,1-1387.406,497.3Zm-6.6-2.818a1.247,1.247,0,0,0-.528.176.486.486,0,0,0-.265.44l-1.673,5.372-1.585-5.372a.945.945,0,0,0-1.223-.537.942.942,0,0,0-.186.1.486.486,0,0,0-.264.44l-1.673,5.284-1.585-5.372a.88.88,0,0,0-.352-.44c-.088-.176-.265-.176-.44-.176a.529.529,0,0,0-.529.265.758.758,0,0,0-.264.528.324.324,0,0,0,.088.265l2.2,6.781a1.86,1.86,0,0,0,.352.528.649.649,0,0,0,.529.176,1.276,1.276,0,0,0,.616-.176,1.842,1.842,0,0,0,.352-.528l1.585-4.931,1.585,4.931c0,.176.176.352.352.528a.648.648,0,0,0,.528.176.953.953,0,0,0,.529-.176.859.859,0,0,0,.44-.528l2.2-6.781a.322.322,0,0,0,.088-.265.527.527,0,0,0-.264-.528A1.638,1.638,0,0,0-1394.01,494.483Z" transform="translate(2701.123 3429.25)" fill="#9f9e9e"/>
    <path id="Path_29270" data-name="Path 29270" d="M-1419.095,467.916h-23.424a2.838,2.838,0,0,0-2.729,2.906,2.8,2.8,0,0,0,2.729,2.73h2.818a2.818,2.818,0,0,1,2.818,2.818,2.818,2.818,0,0,1-2.818,2.818h-14.353a2.838,2.838,0,0,0-2.73,2.906,2.8,2.8,0,0,0,2.73,2.73h8.365a2.817,2.817,0,0,1,2.818,2.818,2.818,2.818,0,0,1-2.818,2.818h-14.177a2.762,2.762,0,0,0-2.642,2.875v.03a2.856,2.856,0,0,0,2.642,2.73h21.222a2.818,2.818,0,0,1,2.818,2.818,2.818,2.818,0,0,1-2.818,2.818h-5.548a2.818,2.818,0,0,0-2.818,2.818,2.818,2.818,0,0,0,2.818,2.818h25.1a19.725,19.725,0,0,0,19.717-19.733,19.725,19.725,0,0,0-19.717-19.717Zm-.176,33.9a14.089,14.089,0,0,1-14.177-14,14.09,14.09,0,0,1,14-14.177,14.09,14.09,0,0,1,14.177,14v.088A14.056,14.056,0,0,1-1419.271,501.818Z" transform="translate(2725.151 3440.231)" fill="url(#linear-gradient-5)"/>
    <path id="Path_29271" data-name="Path 29271" d="M-1272.015,485.31h-2.025c-.088-8.894-7.661-16.114-17-16.114h-13.737a2.709,2.709,0,0,0-2.818,2.6h0v.133a2.818,2.818,0,0,0,2.818,2.73h6.869a2.759,2.759,0,0,1,2.729,2.787v.031a2.856,2.856,0,0,1-2.729,2.642h-13.473a2.709,2.709,0,0,0-2.818,2.6h0v.133a2.818,2.818,0,0,0,2.818,2.73h18.757c7.044.176,12.68,5.636,12.5,12.416a12.041,12.041,0,0,1-4.667,9.158h12.857c6.252,0,11.359-4.843,11.359-10.743A11.3,11.3,0,0,0-1272.015,485.31Z" transform="translate(2663.635 3439.702)" fill="#bebebe"/>
    <path id="Path_29272" data-name="Path 29272" d="M-1301.988,503.951h-27.034a2.911,2.911,0,0,0-3.081,2.731,2.912,2.912,0,0,0,2.731,3.081,2.909,2.909,0,0,0,.351,0h8.806a3.082,3.082,0,0,1,2.994,2.994,2.994,2.994,0,0,1-2.994,2.818h-2.729a2.911,2.911,0,0,0-3.081,2.731,2.911,2.911,0,0,0,2.731,3.081,2.921,2.921,0,0,0,.351,0h20.958a8.869,8.869,0,0,0,8.982-8.755v-.051A8.9,8.9,0,0,0-1301.988,503.951Zm-7.661,11.624a2.911,2.911,0,0,1-2.735-3.077,2.911,2.911,0,0,1,3.077-2.735,2.911,2.911,0,0,1,2.741,2.906,2.972,2.972,0,0,1-3.037,2.906h-.045Zm8.189,0a3.031,3.031,0,0,1-3.082-2.906,2.971,2.971,0,0,1,3.035-2.906h.047a2.91,2.91,0,0,1,3.081,2.731,2.911,2.911,0,0,1-2.731,3.081A2.921,2.921,0,0,1-1301.46,515.575Z" transform="translate(2671.065 3425.287)" fill="url(#linear-gradient-6)"/>
    <path id="Path_29273" data-name="Path 29273" d="M-1001.689,502.715a3.313,3.313,0,0,0-4.641-.553l-9.36,7.335a2.653,2.653,0,0,1-1.629.563l-10.127.006h-1.863a1.653,1.653,0,0,1-1.618-1.688,1.654,1.654,0,0,1,1.612-1.618l9.591-.006a3.307,3.307,0,0,0,3.249-3.365,3.307,3.307,0,0,0-3.256-3.25l-10.195.005-6.913.005h-3.246a7.948,7.948,0,0,0-4.9,1.7l-4.591,3.605a.662.662,0,0,0-.111.928l8.92,11.286a.664.664,0,0,0,.514.251l13.434.088,8.272.026a7.937,7.937,0,0,0,4.986-1.709l11.328-8.956A3.312,3.312,0,0,0-1001.689,502.715Z" transform="translate(2553.983 3426.866)" fill="url(#linear-gradient-7)"/>
    <rect id="Rectangle_1040" data-name="Rectangle 1040" width="6.701" height="15.352" rx="0.867" transform="translate(1496.03 3938.937) rotate(-38.338)" fill="#13b778"/>
    <path id="Subtraction_10" data-name="Subtraction 10" d="M-1002.526,470.15h-31.183a3.83,3.83,0,0,1-3.828-3.833,3.83,3.83,0,0,1,3.828-3.827h31.183a3.831,3.831,0,0,1,3.833,3.829,3.83,3.83,0,0,1-3.826,3.832Zm-17.3-4.994a1.166,1.166,0,0,0-1.134,1.2,1.166,1.166,0,0,0,1.134,1.134h16.581a1.167,1.167,0,0,0,1.2-1.134,1.166,1.166,0,0,0-1.134-1.2h-16.646Zm-12.481,0a1.175,1.175,0,0,0-1.167,1.182,1.175,1.175,0,0,0,1.182,1.167,1.175,1.175,0,0,0,1.168-1.182,1.175,1.175,0,0,0-1.168-1.167Z" transform="translate(2548.886 3442.482)" fill="#bebebe"/>
    <path id="Subtraction_11" data-name="Subtraction 11" d="M-1002.526,488.845h-31.183a3.83,3.83,0,0,1-3.828-3.833,3.831,3.831,0,0,1,3.828-3.828h31.183a3.831,3.831,0,0,1,3.832,3.829,3.831,3.831,0,0,1-3.826,3.832Zm-17.3-4.994a1.166,1.166,0,0,0-1.134,1.2,1.166,1.166,0,0,0,1.134,1.134h16.581a1.167,1.167,0,0,0,1.2-1.134,1.166,1.166,0,0,0-1.134-1.2h-16.646Zm-12.481,0a1.175,1.175,0,0,0-1.167,1.182,1.175,1.175,0,0,0,1.182,1.167,1.175,1.175,0,0,0,1.168-1.182,1.175,1.175,0,0,0-1.168-1.167Z" transform="translate(2548.886 3434.728)" fill="#bebebe"/>
    <path id="Path_29274" data-name="Path 29274" d="M-1127.654,489.607c-.858-.4-1.716-.765-2.557-1.21a2.48,2.48,0,0,1-1.379-2.573,2.478,2.478,0,0,1,1.761-2.208c.781-.291,1.562-.551,2.325-.843a2.729,2.729,0,0,0,1.73-3.751q-.621-1.7-1.287-3.4a2.719,2.719,0,0,0-3.568-1.639c-.828.291-1.654.6-2.5.9a2.633,2.633,0,0,1-3.022-.644,2.673,2.673,0,0,1-.465-3.094c.349-.813.736-1.608,1.1-2.4a2.918,2.918,0,0,0-1.47-3.951,23,23,0,0,1-2.928-1.341,2.917,2.917,0,0,0-3.982,1.5c-.348.813-.736,1.609-1.1,2.42l-2.711,5.959a11.943,11.943,0,0,1,9.792,13.762,11.943,11.943,0,0,1-11.734,9.958l-8.9.015-1.271,2.773c-.368.826-.751,1.639-1.118,2.465a2.37,2.37,0,0,0,1.087,3.186q2.045,1.011,4.135,1.884a2.355,2.355,0,0,0,3.125-1.255c.382-.813.75-1.64,1.133-2.466a2.6,2.6,0,0,1,2.618-1.608,2.539,2.539,0,0,1,2.42,1.807c.322.857.644,1.731,1,2.588a2.68,2.68,0,0,0,3.231,1.628c1.348-.444,2.681-.919,4-1.471a2.687,2.687,0,0,0,1.532-3.431c-.292-.888-.581-1.792-.89-2.68a2.711,2.711,0,0,1,.736-3.094,2.665,2.665,0,0,1,3.138-.459c.857.382,1.7.8,2.573,1.162a2.388,2.388,0,0,0,3.263-1.24c.26-.552.506-1.118.766-1.67.275-.6.552-1.179.813-1.776a2.844,2.844,0,0,0-1.364-3.784l-.031-.015c.029.013.013.013,0,0Z" transform="translate(2600.165 3442.22)" fill="#bebebe"/>
    <path id="Path_29275" data-name="Path 29275" d="M-1189.3,505.709a2.588,2.588,0,0,0-2.588,2.588,2.588,2.588,0,0,0,2.588,2.588,2.588,2.588,0,0,0,2.589-2.588A2.588,2.588,0,0,0-1189.3,505.709Z" transform="translate(2612.904 3424.556)" fill="#2f7fc2"/>
    <path id="Path_29276" data-name="Path 29276" d="M-1162.091,487.965H-1188.9a2.6,2.6,0,0,0-2.541,2.651,2.6,2.6,0,0,0,2.541,2.541h8.867a2.588,2.588,0,0,1,2.588,2.588,2.588,2.588,0,0,1-2.588,2.588h-.276a2.6,2.6,0,0,0-2.519,2.675,2.6,2.6,0,0,0,2.519,2.518h18.2a7.787,7.787,0,0,0,7.78-7.781A7.771,7.771,0,0,0-1162.091,487.965Zm-3.943,8.166a2.585,2.585,0,0,1-2.219,2.218,2.613,2.613,0,0,1-.689,0,2.586,2.586,0,0,1-2.219-2.907,2.586,2.586,0,0,1,2.907-2.218A2.586,2.586,0,0,1-1166.034,496.131Zm4.36,2.233h-.007a2.588,2.588,0,0,1-2.589-2.588,2.588,2.588,0,0,1,2.589-2.588,2.588,2.588,0,0,1,2.588,2.588A2.584,2.584,0,0,1-1161.674,498.365Z" transform="translate(2612.719 3431.915)" fill="url(#linear-gradient-8)"/>
  </g>
</svg>
