<svg id="Layer_1" data-name="Layer 1" xmlns="http://www.w3.org/2000/svg" width="8.231mm" height="8.231mm" viewBox="0 0 23.332 23.332"><defs><style>.cls-1{fill:#fff;}</style></defs><path id="download-solid" class="cls-1" d="M9.863.125h3.606A1.079,1.079,0,0,1,14.552,1.2v7.58h3.957a.9.9,0,0,1,.636,1.538l-6.862,6.86a.873.873,0,0,1-1.23,0L4.187,10.315a.9.9,0,0,1,.635-1.534H8.779V1.207A1.08,1.08,0,0,1,9.856.125Zm13.344,16.95v5.046A1.079,1.079,0,0,1,22.131,23.2H1.207A1.079,1.079,0,0,1,.125,22.127V17.079A1.079,1.079,0,0,1,1.2,16h6.62l2.209,2.209a2.31,2.31,0,0,0,3.267.006l0-.006L15.511,16h6.614a1.079,1.079,0,0,1,1.082,1.076Zm-5.591,3.967a.9.9,0,1,0-.9.9h0a.9.9,0,0,0,.9-.9Zm2.886,0a.9.9,0,1,0-.9.9h0a.9.9,0,0,0,.9-.9Z"/></svg>