<svg id="Layer_1" data-name="Layer 1" xmlns="http://www.w3.org/2000/svg" width="34.6mm" height="33.327mm" viewBox="0 0 98.079 94.471"><defs><style>.cls-1{fill:#4eb246;}</style></defs><g id="Group_4186" data-name="Group 4186"><g id="Group_4185" data-name="Group 4185"><path id="Path_29287" data-name="Path 29287" class="cls-1" d="M52.425,88.9a6.991,6.991,0,0,1,6.031-7.835h0l.04,0a34.455,34.455,0,0,0,0-66.761A7.036,7.036,0,0,1,52.72,9.428a6.876,6.876,0,0,1,2.053-7.2,7.167,7.167,0,0,1,7.507-1.2,48.323,48.323,0,0,1,0,93.582,7.21,7.21,0,0,1-1.882.259,7.2,7.2,0,0,1-.962.064A7.052,7.052,0,0,1,52.425,88.9ZM38.666,94.866h-.03a7.187,7.187,0,0,1-1.907-.258,48.323,48.323,0,0,1,0-93.582,7.1,7.1,0,0,1,8.727,4.823A6.948,6.948,0,0,1,40.623,14.4l-.08.022a34.455,34.455,0,0,0,0,66.76,6.956,6.956,0,0,1,5.2,7.65,7.031,7.031,0,0,1-7,6.019ZM28.8,53.819h40.57c-1.13,5-9.679,13.523-20.282,13.523C38.358,67.35,29.918,58.774,28.8,53.825ZM60.45,38.964c-4.923,0-7.116,4.9-7.116,4.9s-2.366-1.571-3.077-2.065c1.147-3.05,4.915-8.165,10.193-8.165s9.048,5.115,10.2,8.165c-.718.49-3.079,2.065-3.079,2.065s-2.054-4.894-7.123-4.894Zm-23.216,0c-4.924,0-7.118,4.9-7.118,4.9S27.75,42.292,27.041,41.8c1.146-3.05,4.915-8.165,10.194-8.165s9.047,5.115,10.2,8.165c-.718.49-3.08,2.065-3.08,2.065S42.3,38.97,37.233,38.97Z" transform="translate(-0.465 -0.46)"/></g></g></svg>